<?xml version="1.0" encoding="UTF-8" standalone="no"?>
<!-- Created with Inkscape (http://www.inkscape.org/) -->
<svg xmlns:dc="http://purl.org/dc/elements/1.1/" xmlns:cc="http://web.resource.org/cc/" xmlns:rdf="http://www.w3.org/1999/02/22-rdf-syntax-ns#" xmlns:svg="http://www.w3.org/2000/svg" xmlns="http://www.w3.org/2000/svg" xmlns:sodipodi="http://sodipodi.sourceforge.net/DTD/sodipodi-0.dtd" xmlns:inkscape="http://www.inkscape.org/namespaces/inkscape" width="267.66931" height="267.66931" id="svg16744" sodipodi:version="0.32" inkscape:version="0.45pre1" version="1.0" sodipodi:docname="Thule-GesellschaftNeu.svg" inkscape:output_extension="org.inkscape.output.svg.inkscape" sodipodi:docbase="C:\Users\Niels">
  <defs id="defs16746"/>
  <sodipodi:namedview id="base" pagecolor="#ffffff" bordercolor="#666666" borderopacity="1.0" gridtolerance="10000" guidetolerance="10" objecttolerance="10" inkscape:pageopacity="0.0" inkscape:pageshadow="2" inkscape:zoom="1.7936891" inkscape:cx="209.42091" inkscape:cy="152.87265" inkscape:document-units="px" inkscape:current-layer="layer1" inkscape:window-width="1280" inkscape:window-height="750" inkscape:window-x="-8" inkscape:window-y="-8"/>
  <metadata id="metadata16749">
    <rdf:RDF>
      <cc:Work rdf:about="">
        <dc:format>image/svg+xml</dc:format>
        <dc:type rdf:resource="http://purl.org/dc/dcmitype/StillImage"/>
      </cc:Work>
    </rdf:RDF>
  </metadata>
  <g inkscape:label="Layer 1" inkscape:groupmode="layer" id="layer1" transform="translate(182.40604,-204.24181)">
    <path style="opacity:1;fill:#000000;fill-opacity:1;stroke:none;stroke-width:25;stroke-miterlimit:4;stroke-dasharray:none;stroke-opacity:1" d="M 133.84375,28.25 C 129.47998,28.249999 125.16522,28.512773 120.9375,29.03125 L 120.59375,121.375 L 54.15625,121.375 C 58.967357,90.313099 81.394652,65.211955 110.96875,56.53125 L 110.96875,30.75 C 63.710815,41.250526 28.187327,83.568643 28.1875,133.90625 C 28.187493,138.1208 28.453381,142.28686 28.9375,146.375 L 120.59375,146.375 L 120.59375,213.46875 C 89.717422,208.39419 64.869187,185.898 56.375,156.34375 L 30.59375,156.34375 C 40.929771,203.8194 83.351181,239.5625 133.84375,239.5625 C 137.82432,239.5625 141.75724,239.33895 145.625,238.90625 L 145.59375,146.375 L 213.5625,146.375 C 208.71026,177.85997 185.74547,203.25072 155.59375,211.625 L 155.59375,237.3125 C 199.40316,228.073 233.32319,191.50515 238.6875,146.40625 L 239.5,133.90625 C 239.49999,129.65996 239.24134,125.46161 238.75,121.34375 L 145.59375,121.375 L 145.59375,54.09375 C 177.1391,58.663485 202.68097,81.381422 211.34375,111.375 L 237.0625,111.375 C 226.69015,63.947155 184.30236,28.25 133.84375,28.25 z " id="path11866" sodipodi:nodetypes="ccccccscccccsccccccccccccc" transform="translate(-182.40604,204.24181)"/>
    <path style="opacity:1;fill:#000000;fill-opacity:1;stroke:none;stroke-width:17.82676506;stroke-miterlimit:4;stroke-dasharray:none;stroke-opacity:1" d="M -48.580149,204.23792 C -122.34755,204.23792 -182.40298,264.2932 -182.40287,338.06058 C -182.40287,411.82795 -122.34755,471.91829 -48.580149,471.9183 C 21.806041,471.9183 79.590729,417.18252 84.75162,348.08764 L 85.277571,348.08764 L 85.277571,338.06058 C 85.277571,264.29322 25.187249,204.23794 -48.580149,204.23792 z M -48.580149,224.25698 C 14.365992,224.25699 65.258458,275.11448 65.258458,338.06058 C 65.258683,401.00668 14.365992,451.89925 -48.580149,451.89925 C -111.52629,451.89924 -162.41887,401.00669 -162.41887,338.06058 C -162.41898,275.11451 -111.52629,224.25698 -48.580149,224.25698 z " id="path14796"/>
  </g>
</svg>